<mxfile host="65bd71144e" modified="2020-10-30T12:10:29.473Z" agent="5.0 (Macintosh; Intel Mac OS X 10_15_7) AppleWebKit/537.36 (KHTML, like Gecko) Code/1.50.1 Chrome/83.0.4103.122 Electron/9.2.1 Safari/537.36" etag="kOE3qPNv7EEaOmag4oQS" version="13.6.5">
    <diagram id="4VKKd6IWvXmH5NwJkmRS" name="Page-1">
        <mxGraphModel dx="1881" dy="1868" grid="1" gridSize="10" guides="1" tooltips="1" connect="1" arrows="1" fold="1" page="1" pageScale="1" pageWidth="827" pageHeight="1169" math="0" shadow="0">
            <root>
                <mxCell id="0"/>
                <mxCell id="1" parent="0"/>
                <mxCell id="B0guJ4K7h7i6kviaL2ei-1" value="Khách hàng&lt;br style=&quot;font-size: 18px;&quot;&gt;của rạp phim" style="shape=umlActor;verticalLabelPosition=bottom;verticalAlign=top;html=1;outlineConnect=0;strokeWidth=2;fontSize=18;" parent="1" vertex="1">
                    <mxGeometry x="-763" y="-729" width="35" height="80" as="geometry"/>
                </mxCell>
                <mxCell id="B0guJ4K7h7i6kviaL2ei-2" value="Đăng nhập" style="ellipse;whiteSpace=wrap;html=1;" parent="1" vertex="1">
                    <mxGeometry x="-393" y="-309" width="120" height="80" as="geometry"/>
                </mxCell>
                <mxCell id="B0guJ4K7h7i6kviaL2ei-3" value="Đăng ký" style="ellipse;whiteSpace=wrap;html=1;" parent="1" vertex="1">
                    <mxGeometry x="-583" y="-309" width="120" height="80" as="geometry"/>
                </mxCell>
                <mxCell id="B0guJ4K7h7i6kviaL2ei-4" value="Đăng xuất" style="ellipse;whiteSpace=wrap;html=1;" parent="1" vertex="1">
                    <mxGeometry x="-393" y="-439" width="120" height="80" as="geometry"/>
                </mxCell>
                <mxCell id="B0guJ4K7h7i6kviaL2ei-11" value="Quản lý &lt;br&gt;rạp phim" style="shape=umlActor;verticalLabelPosition=bottom;verticalAlign=top;html=1;outlineConnect=0;fontSize=20;" parent="1" vertex="1">
                    <mxGeometry x="-153" y="-769" width="40" height="80" as="geometry"/>
                </mxCell>
                <mxCell id="B0guJ4K7h7i6kviaL2ei-12" value="Admin" style="shape=umlActor;verticalLabelPosition=bottom;verticalAlign=top;html=1;outlineConnect=0;fontSize=18;" parent="1" vertex="1">
                    <mxGeometry x="-153" y="-999" width="40" height="80" as="geometry"/>
                </mxCell>
                <mxCell id="20" style="edgeStyle=orthogonalEdgeStyle;rounded=0;orthogonalLoop=1;jettySize=auto;html=1;exitX=1;exitY=0.5;exitDx=0;exitDy=0;entryX=0;entryY=0.5;entryDx=0;entryDy=0;startArrow=none;startFill=0;endArrow=classicThin;endFill=1;dashed=1;" edge="1" parent="1" source="B0guJ4K7h7i6kviaL2ei-14" target="B0guJ4K7h7i6kviaL2ei-2">
                    <mxGeometry relative="1" as="geometry"/>
                </mxCell>
                <mxCell id="B0guJ4K7h7i6kviaL2ei-14" value="Đặt vé" style="ellipse;whiteSpace=wrap;html=1;" parent="1" vertex="1">
                    <mxGeometry x="-583" y="-439" width="120" height="80" as="geometry"/>
                </mxCell>
                <mxCell id="B0guJ4K7h7i6kviaL2ei-15" value="Xem giới thiệu phim" style="ellipse;whiteSpace=wrap;html=1;" parent="1" vertex="1">
                    <mxGeometry x="-583" y="-849" width="120" height="80" as="geometry"/>
                </mxCell>
                <mxCell id="B0guJ4K7h7i6kviaL2ei-17" value="Xem khuyến mãi" style="ellipse;whiteSpace=wrap;html=1;" parent="1" vertex="1">
                    <mxGeometry x="-583" y="-1069" width="120" height="80" as="geometry"/>
                </mxCell>
                <mxCell id="B0guJ4K7h7i6kviaL2ei-18" value="Thanh toán" style="ellipse;whiteSpace=wrap;html=1;" parent="1" vertex="1">
                    <mxGeometry x="-583" y="-629" width="120" height="80" as="geometry"/>
                </mxCell>
                <mxCell id="B0guJ4K7h7i6kviaL2ei-19" value="Quản lý các tài khoản quản lý" style="ellipse;whiteSpace=wrap;html=1;" parent="1" vertex="1">
                    <mxGeometry x="-393" y="-1059" width="120" height="80" as="geometry"/>
                </mxCell>
                <mxCell id="B0guJ4K7h7i6kviaL2ei-20" value="Quản lý các chương trình khuyến mãi" style="ellipse;whiteSpace=wrap;html=1;" parent="1" vertex="1">
                    <mxGeometry x="-393" y="-719" width="120" height="80" as="geometry"/>
                </mxCell>
                <mxCell id="B0guJ4K7h7i6kviaL2ei-21" value="Quản lý lịch chiếu" style="ellipse;whiteSpace=wrap;html=1;" parent="1" vertex="1">
                    <mxGeometry x="-393" y="-829" width="120" height="80" as="geometry"/>
                </mxCell>
                <mxCell id="B0guJ4K7h7i6kviaL2ei-22" value="Thực hiện thống kê" style="ellipse;whiteSpace=wrap;html=1;" parent="1" vertex="1">
                    <mxGeometry x="-393" y="-939" width="120" height="80" as="geometry"/>
                </mxCell>
                <mxCell id="iFyN41YhfVEVNa4CwGqs-1" value="Hủy vé" style="ellipse;whiteSpace=wrap;html=1;" parent="1" vertex="1">
                    <mxGeometry x="-583" y="-739" width="120" height="80" as="geometry"/>
                </mxCell>
                <mxCell id="B0guJ4K7h7i6kviaL2ei-16" value="Xem lịch chiếu" style="ellipse;whiteSpace=wrap;html=1;" parent="1" vertex="1">
                    <mxGeometry x="-583" y="-959" width="120" height="80" as="geometry"/>
                </mxCell>
                <mxCell id="-LDxfyg8iRPk42h-eqll-32" value="&lt;font style=&quot;font-size: 16px&quot;&gt;&amp;lt;&amp;lt;include&amp;gt;&amp;gt;&lt;br&gt;&lt;/font&gt;" style="text;html=1;strokeColor=none;fillColor=none;align=center;verticalAlign=middle;whiteSpace=wrap;rounded=0;rotation=90;" parent="1" vertex="1">
                    <mxGeometry x="-523" y="-503.5" width="40" height="20" as="geometry"/>
                </mxCell>
                <mxCell id="_rYu2nPlfyyz6sexi9bu-8" value="" style="endArrow=none;html=1;entryX=0;entryY=0.5;entryDx=0;entryDy=0;endFill=0;" parent="1" target="iFyN41YhfVEVNa4CwGqs-1" edge="1">
                    <mxGeometry width="50" height="50" relative="1" as="geometry">
                        <mxPoint x="-663" y="-699" as="sourcePoint"/>
                        <mxPoint x="-583" y="-719.71" as="targetPoint"/>
                    </mxGeometry>
                </mxCell>
                <mxCell id="_rYu2nPlfyyz6sexi9bu-9" value="" style="endArrow=none;html=1;entryX=0;entryY=0.5;entryDx=0;entryDy=0;endFill=0;" parent="1" target="B0guJ4K7h7i6kviaL2ei-18" edge="1">
                    <mxGeometry width="50" height="50" relative="1" as="geometry">
                        <mxPoint x="-663" y="-589" as="sourcePoint"/>
                        <mxPoint x="-583" y="-600.4300000000001" as="targetPoint"/>
                    </mxGeometry>
                </mxCell>
                <mxCell id="_rYu2nPlfyyz6sexi9bu-10" value="" style="endArrow=none;html=1;entryX=0;entryY=0.5;entryDx=0;entryDy=0;endFill=0;" parent="1" target="B0guJ4K7h7i6kviaL2ei-15" edge="1">
                    <mxGeometry width="50" height="50" relative="1" as="geometry">
                        <mxPoint x="-663" y="-809" as="sourcePoint"/>
                        <mxPoint x="-583" y="-839.71" as="targetPoint"/>
                    </mxGeometry>
                </mxCell>
                <mxCell id="_rYu2nPlfyyz6sexi9bu-11" value="" style="endArrow=none;html=1;entryX=0;entryY=0.5;entryDx=0;entryDy=0;endFill=0;" parent="1" target="B0guJ4K7h7i6kviaL2ei-16" edge="1">
                    <mxGeometry width="50" height="50" relative="1" as="geometry">
                        <mxPoint x="-663" y="-919" as="sourcePoint"/>
                        <mxPoint x="-583" y="-959.71" as="targetPoint"/>
                    </mxGeometry>
                </mxCell>
                <mxCell id="_rYu2nPlfyyz6sexi9bu-12" value="" style="endArrow=none;html=1;entryX=0;entryY=0.5;entryDx=0;entryDy=0;" parent="1" target="B0guJ4K7h7i6kviaL2ei-14" edge="1">
                    <mxGeometry width="50" height="50" relative="1" as="geometry">
                        <mxPoint x="-663" y="-399" as="sourcePoint"/>
                        <mxPoint x="-593" y="-394" as="targetPoint"/>
                    </mxGeometry>
                </mxCell>
                <mxCell id="_rYu2nPlfyyz6sexi9bu-15" value="" style="endArrow=none;html=1;entryX=0;entryY=0.5;entryDx=0;entryDy=0;rounded=0;exitX=0;exitY=0.5;exitDx=0;exitDy=0;" parent="1" target="B0guJ4K7h7i6kviaL2ei-3" edge="1" source="B0guJ4K7h7i6kviaL2ei-17">
                    <mxGeometry width="50" height="50" relative="1" as="geometry">
                        <mxPoint x="-663" y="-1029" as="sourcePoint"/>
                        <mxPoint x="-450.9999999999998" y="-99" as="targetPoint"/>
                        <Array as="points">
                            <mxPoint x="-663" y="-1029"/>
                            <mxPoint x="-663" y="-269"/>
                        </Array>
                    </mxGeometry>
                </mxCell>
                <mxCell id="_rYu2nPlfyyz6sexi9bu-16" value="" style="endArrow=none;html=1;exitX=1;exitY=0.5;exitDx=0;exitDy=0;rounded=0;" parent="1" source="B0guJ4K7h7i6kviaL2ei-22" edge="1">
                    <mxGeometry width="50" height="50" relative="1" as="geometry">
                        <mxPoint x="-123" y="-929" as="sourcePoint"/>
                        <mxPoint x="-203" y="-1019" as="targetPoint"/>
                        <Array as="points">
                            <mxPoint x="-203" y="-899"/>
                        </Array>
                    </mxGeometry>
                </mxCell>
                <mxCell id="_rYu2nPlfyyz6sexi9bu-17" value="" style="endArrow=none;html=1;entryX=1;entryY=0.5;entryDx=0;entryDy=0;" parent="1" target="B0guJ4K7h7i6kviaL2ei-21" edge="1">
                    <mxGeometry width="50" height="50" relative="1" as="geometry">
                        <mxPoint x="-203" y="-789" as="sourcePoint"/>
                        <mxPoint x="-193" y="-769" as="targetPoint"/>
                    </mxGeometry>
                </mxCell>
                <mxCell id="_rYu2nPlfyyz6sexi9bu-18" value="" style="endArrow=none;html=1;entryX=1;entryY=0.5;entryDx=0;entryDy=0;rounded=0;" parent="1" edge="1">
                    <mxGeometry width="50" height="50" relative="1" as="geometry">
                        <mxPoint x="-203" y="-789" as="sourcePoint"/>
                        <mxPoint x="-273" y="-680.6699999999998" as="targetPoint"/>
                        <Array as="points">
                            <mxPoint x="-203" y="-679"/>
                        </Array>
                    </mxGeometry>
                </mxCell>
                <mxCell id="_rYu2nPlfyyz6sexi9bu-22" value="" style="endArrow=none;html=1;exitX=1;exitY=0.5;exitDx=0;exitDy=0;rounded=0;" parent="1" source="B0guJ4K7h7i6kviaL2ei-19" edge="1">
                    <mxGeometry width="50" height="50" relative="1" as="geometry">
                        <mxPoint x="-73" y="-829" as="sourcePoint"/>
                        <mxPoint x="-203" y="-1019" as="targetPoint"/>
                        <Array as="points"/>
                    </mxGeometry>
                </mxCell>
                <mxCell id="4" value="" style="endArrow=none;html=1;" edge="1" parent="1">
                    <mxGeometry width="50" height="50" relative="1" as="geometry">
                        <mxPoint x="-713" y="-679" as="sourcePoint"/>
                        <mxPoint x="-663" y="-679" as="targetPoint"/>
                    </mxGeometry>
                </mxCell>
                <mxCell id="5" value="Abstract actor" style="shape=umlActor;verticalLabelPosition=bottom;verticalAlign=top;html=1;outlineConnect=0;fontSize=20;" vertex="1" parent="1">
                    <mxGeometry x="-153" y="-369" width="40" height="80" as="geometry"/>
                </mxCell>
                <mxCell id="10" value="" style="endArrow=block;html=1;rounded=0;endFill=0;" edge="1" parent="1">
                    <mxGeometry width="50" height="50" relative="1" as="geometry">
                        <mxPoint x="-743" y="-579" as="sourcePoint"/>
                        <mxPoint x="-133" y="-239" as="targetPoint"/>
                        <Array as="points">
                            <mxPoint x="-743" y="-99"/>
                            <mxPoint x="-133" y="-99"/>
                        </Array>
                    </mxGeometry>
                </mxCell>
                <mxCell id="12" value="" style="endArrow=classicThin;dashed=1;html=1;exitX=0.5;exitY=1;exitDx=0;exitDy=0;entryX=0.5;entryY=1;entryDx=0;entryDy=0;rounded=0;endFill=1;" edge="1" parent="1" source="B0guJ4K7h7i6kviaL2ei-3" target="B0guJ4K7h7i6kviaL2ei-2">
                    <mxGeometry width="50" height="50" relative="1" as="geometry">
                        <mxPoint x="-373" y="-499" as="sourcePoint"/>
                        <mxPoint x="-323" y="-549" as="targetPoint"/>
                        <Array as="points">
                            <mxPoint x="-523" y="-179"/>
                            <mxPoint x="-413" y="-179"/>
                            <mxPoint x="-333" y="-179"/>
                        </Array>
                    </mxGeometry>
                </mxCell>
                <mxCell id="16" value="" style="endArrow=none;dashed=1;html=1;entryX=0.5;entryY=1;entryDx=0;entryDy=0;exitX=0.5;exitY=0;exitDx=0;exitDy=0;startArrow=classicThin;startFill=1;" edge="1" parent="1" source="B0guJ4K7h7i6kviaL2ei-14" target="B0guJ4K7h7i6kviaL2ei-18">
                    <mxGeometry width="50" height="50" relative="1" as="geometry">
                        <mxPoint x="-593" y="-459" as="sourcePoint"/>
                        <mxPoint x="-543" y="-509" as="targetPoint"/>
                    </mxGeometry>
                </mxCell>
                <mxCell id="17" value="&lt;font style=&quot;font-size: 16px&quot;&gt;&amp;lt;&amp;lt;extend&amp;gt;&amp;gt;&lt;br&gt;&lt;/font&gt;" style="text;html=1;strokeColor=none;fillColor=none;align=center;verticalAlign=middle;whiteSpace=wrap;rounded=0;rotation=0;" vertex="1" parent="1">
                    <mxGeometry x="-443" y="-209" width="40" height="20" as="geometry"/>
                </mxCell>
                <mxCell id="18" value="" style="endArrow=none;html=1;" edge="1" parent="1" target="B0guJ4K7h7i6kviaL2ei-12">
                    <mxGeometry width="50" height="50" relative="1" as="geometry">
                        <mxPoint x="-203" y="-959" as="sourcePoint"/>
                        <mxPoint x="-133" y="-869" as="targetPoint"/>
                    </mxGeometry>
                </mxCell>
                <mxCell id="19" value="" style="endArrow=none;html=1;" edge="1" parent="1">
                    <mxGeometry width="50" height="50" relative="1" as="geometry">
                        <mxPoint x="-203" y="-729" as="sourcePoint"/>
                        <mxPoint x="-153" y="-729" as="targetPoint"/>
                    </mxGeometry>
                </mxCell>
                <mxCell id="21" value="&lt;font style=&quot;font-size: 16px&quot;&gt;&amp;lt;&amp;lt;include&amp;gt;&amp;gt;&lt;br&gt;&lt;/font&gt;" style="text;html=1;strokeColor=none;fillColor=none;align=center;verticalAlign=middle;whiteSpace=wrap;rounded=0;rotation=90;" vertex="1" parent="1">
                    <mxGeometry x="-433" y="-349" width="40" height="20" as="geometry"/>
                </mxCell>
                <mxCell id="23" value="" style="endArrow=none;html=1;entryX=1;entryY=0.5;entryDx=0;entryDy=0;" edge="1" parent="1" target="B0guJ4K7h7i6kviaL2ei-4">
                    <mxGeometry width="50" height="50" relative="1" as="geometry">
                        <mxPoint x="-203" y="-399" as="sourcePoint"/>
                        <mxPoint x="-213" y="-439" as="targetPoint"/>
                    </mxGeometry>
                </mxCell>
                <mxCell id="24" value="" style="endArrow=none;html=1;entryX=1;entryY=0.5;entryDx=0;entryDy=0;rounded=0;" edge="1" parent="1" target="B0guJ4K7h7i6kviaL2ei-2">
                    <mxGeometry width="50" height="50" relative="1" as="geometry">
                        <mxPoint x="-203" y="-399" as="sourcePoint"/>
                        <mxPoint x="-252.99999999999977" y="-285.66999999999985" as="targetPoint"/>
                        <Array as="points">
                            <mxPoint x="-203" y="-269"/>
                        </Array>
                    </mxGeometry>
                </mxCell>
                <mxCell id="25" value="" style="endArrow=none;html=1;" edge="1" parent="1">
                    <mxGeometry width="50" height="50" relative="1" as="geometry">
                        <mxPoint x="-202.99999999999977" y="-330.67" as="sourcePoint"/>
                        <mxPoint x="-152.99999999999977" y="-330.67" as="targetPoint"/>
                    </mxGeometry>
                </mxCell>
                <mxCell id="28" value="" style="endArrow=block;html=1;rounded=0;endFill=0;" edge="1" parent="1">
                    <mxGeometry width="50" height="50" relative="1" as="geometry">
                        <mxPoint x="-113" y="-959" as="sourcePoint"/>
                        <mxPoint x="-113" y="-329" as="targetPoint"/>
                        <Array as="points">
                            <mxPoint x="-63" y="-959"/>
                            <mxPoint x="-63" y="-329"/>
                        </Array>
                    </mxGeometry>
                </mxCell>
                <mxCell id="29" value="" style="endArrow=none;html=1;" edge="1" parent="1" source="B0guJ4K7h7i6kviaL2ei-11">
                    <mxGeometry width="50" height="50" relative="1" as="geometry">
                        <mxPoint x="-53" y="-679" as="sourcePoint"/>
                        <mxPoint x="-63" y="-729" as="targetPoint"/>
                    </mxGeometry>
                </mxCell>
            </root>
        </mxGraphModel>
    </diagram>
</mxfile>